<svg width="14" height="13" viewBox="0 0 14 13" fill="none" xmlns="http://www.w3.org/2000/svg">
<path d="M6.5255 0.504604C6.67291 0.0392737 7.33139 0.0392718 7.4788 0.504602L8.6428 4.17887C8.70863 4.38666 8.90148 4.52786 9.11945 4.52786H12.9126C13.3939 4.52786 13.5973 5.14121 13.2114 5.42879L10.121 7.73162C9.95022 7.85891 9.87881 8.08046 9.94315 8.28355L11.1184 11.9933C11.265 12.4562 10.7323 12.8353 10.343 12.5452L7.30091 10.2784C7.12364 10.1463 6.88066 10.1463 6.70339 10.2784L3.66133 12.5452C3.27198 12.8353 2.73928 12.4562 2.88592 11.9933L4.06115 8.28355C4.12549 8.08046 4.05408 7.85891 3.88326 7.73162L0.792928 5.42879C0.407003 5.14121 0.610396 4.52786 1.09169 4.52786H4.88485C5.10282 4.52786 5.29567 4.38666 5.3615 4.17887L6.5255 0.504604Z" fill="#FFE82F"/>
</svg>
